<svg id="Layer_1" data-name="Layer 1" xmlns="http://www.w3.org/2000/svg" xmlns:xlink="http://www.w3.org/1999/xlink" viewBox="0 0 1024 1024"><defs><style>.cls-1{fill:url(#New_Gradient_Swatch_1__副本);}</style><linearGradient id="New_Gradient_Swatch_1__副本" x1="12" y1="512" x2="1012" y2="512" gradientUnits="userSpaceOnUse"><stop offset="0" stop-color="#02ffff"/><stop offset="1" stop-color="#a721c2"/></linearGradient></defs><title>logo</title><path class="cls-1" d="M927.39,361l-77-133.31L773.46,361Zm-77,142.13,77-133.31H773.46ZM1012,507.59,935,374.28l-77,133.31ZM935,649.72l77-133.3H858.07Zm-161.57,4.41H927.39l-77-133.31Zm77,142.13,77-133.3H773.46Zm-161.57,4.41H842.78l-77-133.3ZM604.25,947.22H758.17l-77-133.3Zm161.57-4.41,77-133.31H688.85Zm77-728.31-77-133.31h0l-77,133.31ZM435,947.22H589l-77-133.3Zm84.6-137.72,77,133.31,77-133.31ZM758.18,76.78H604.25l77,133.31ZM673.57,214.5l-77-133.31h0l-77,133.31Zm15.28,8.83,77,133.31h0l77-133.31Zm-92.25,151-77,133.31H673.57ZM350.42,507.59H504.36l-77-133.31Zm323.15,8.83H519.64l77,133.3ZM427.39,649.72l77-133.3H350.42ZM512,520.82,435,654.13H589ZM181.21,800.68H335.14l-77-133.3Zm84.61,146.54H419.75l-77-133.3Zm84.6-137.72,77,133.31,77-133.31ZM589,76.78H435l77,133.31Zm0,293.09H435l77,133.31ZM181.21,809.5l77,133.31,77-133.31Zm323.15-595-77-133.31-77,133.31ZM419.75,76.78H265.82l77,133.31ZM258.18,81.19l-77,133.31H335.15Zm77,142.13H181.21l77,133.31Zm-161.57,4.41L96.61,361H250.54Zm-77,142.13,77,133.31,77-133.31ZM12,507.59H165.93L89,374.28ZM89,649.72l77-133.3H12Z"/></svg>