<svg xmlns="http://www.w3.org/2000/svg" viewBox="0 0 239 158.38"><defs><style>.cls-1{fill:#666;}.cls-2{fill:none;stroke:#666;stroke-miterlimit:10;stroke-width:5px;}</style></defs><title>network</title><g id="Layer_2" data-name="Layer 2"><g id="Layer_1-2" data-name="Layer 1"><polygon class="cls-1" points="141.17 0 97.72 0 76 37.63 97.72 75.25 141.17 75.25 162.9 37.63 141.17 0"/><line class="cls-2" x1="122" y1="41.26" x2="214" y2="94.26"/><line class="cls-2" x1="122" y1="41.26" x2="25" y2="94.26"/><line class="cls-2" x1="88" y1="94.01" x2="88" y2="137.01"/><polygon class="cls-1" points="100.5 115.08 75.5 115.08 63 136.73 75.5 158.38 100.5 158.38 113 136.73 100.5 115.08"/><line class="cls-2" x1="214" y1="94.01" x2="214" y2="137.01"/><polygon class="cls-1" points="226.5 115.08 201.5 115.08 189 136.73 201.5 158.38 226.5 158.38 239 136.73 226.5 115.08"/><line class="cls-2" x1="25" y1="94.01" x2="25" y2="137.01"/><polygon class="cls-1" points="37.5 115.08 12.5 115.08 0 136.73 12.5 158.38 37.5 158.38 50 136.73 37.5 115.08"/><line class="cls-2" x1="151" y1="94.01" x2="151" y2="137.01"/><polygon class="cls-1" points="163.5 115.08 138.5 115.08 126 136.73 138.5 158.38 163.5 158.38 176 136.73 163.5 115.08"/><line class="cls-2" x1="122" y1="41.26" x2="151" y2="94.26"/><line class="cls-2" x1="122" y1="41.26" x2="88" y2="94.26"/></g></g></svg>