<?xml version="1.0" encoding="utf-8"?>
<!-- Generator: Adobe Illustrator 21.1.0, SVG Export Plug-In . SVG Version: 6.00 Build 0)  -->
<svg version="1.1" id="Capa_1" xmlns="http://www.w3.org/2000/svg" xmlns:xlink="http://www.w3.org/1999/xlink" x="0px" y="0px"
	 viewBox="0 0 466.2 466.2" style="enable-background:new 0 0 466.2 466.2;" xml:space="preserve">
<style type="text/css">
	.st0{fill:#666666;}
</style>
<g>
	<path class="st0" d="M465,261.2c-0.8-0.8-1.9-1.2-3.1-1.2c-22,0-40.1,3-54.4,9c-14.3,5.9-29.4,16.8-45.2,32.6
		c-6.7,6.8-14.2,15-22.2,24.6l-47.9,2.5c-1.3,0.2-2.4,0.8-3.3,2l-28.3,48.5c-1,1.7-0.8,3.3,0.6,4.9l8.1,8.1c0.8,0.8,1.7,1.1,2.9,1.1
		c0.5,0,0.9,0,1.1-0.1l34.9-10.7l35.5,35.5L333,452.8c-0.4,1.5-0.1,2.9,1,4l8.1,8.1c0.9,0.8,1.9,1.1,2.9,1.1c0.8,0,1.4-0.2,2-0.5
		l48.5-28.3c1.2-0.8,1.9-1.9,2-3.3l2.5-47.9c9.6-8.1,17.8-15.5,24.6-22.2c15-15.1,25.7-30.3,32-45.5c6.3-15.3,9.5-33.4,9.5-54.4
		C466.2,263,465.8,262,465,261.2z M434.4,309c-2.3,2.3-5.2,3.5-8.6,3.5c-3.4,0-6.2-1.2-8.6-3.5c-2.3-2.3-3.5-5.2-3.5-8.6
		c0-3.4,1.2-6.2,3.5-8.6c2.3-2.3,5.2-3.5,8.6-3.5c3.4,0,6.2,1.2,8.6,3.5c2.3,2.3,3.5,5.2,3.5,8.6C437.9,303.8,436.7,306.7,434.4,309
		z"/>
</g>
<g>
	<path class="st0" d="M205,261.2c-0.8-0.8-1.9-1.2-3.1-1.2c-22,0-40.1,3-54.4,9c-14.3,5.9-29.4,16.8-45.2,32.6
		c-6.7,6.8-14.2,15-22.2,24.6l-47.9,2.5c-1.3,0.2-2.4,0.8-3.3,2L0.6,379.2c-1,1.7-0.8,3.3,0.6,4.9l8.1,8.1c0.8,0.8,1.7,1.1,2.9,1.1
		c0.5,0,0.9,0,1.1-0.1l34.9-10.7L83.7,418L73,452.8c-0.4,1.5-0.1,2.9,1,4l8.1,8.1c0.9,0.8,1.9,1.1,2.9,1.1c0.8,0,1.4-0.2,2-0.5
		l48.5-28.3c1.2-0.8,1.9-1.9,2-3.3l2.5-47.9c9.6-8.1,17.8-15.5,24.6-22.2c15-15.1,25.7-30.3,32-45.5c6.3-15.3,9.5-33.4,9.5-54.4
		C206.2,263,205.8,262,205,261.2z M174.4,309c-2.3,2.3-5.2,3.5-8.6,3.5c-3.4,0-6.2-1.2-8.6-3.5c-2.3-2.3-3.5-5.2-3.5-8.6
		c0-3.4,1.2-6.2,3.5-8.6c2.3-2.3,5.2-3.5,8.6-3.5c3.4,0,6.2,1.2,8.6,3.5c2.3,2.3,3.5,5.2,3.5,8.6C177.9,303.8,176.7,306.7,174.4,309
		z"/>
</g>
<g>
	<path class="st0" d="M335,1.2c-0.8-0.8-1.9-1.2-3.1-1.2c-22,0-40.1,3-54.4,9c-14.3,5.9-29.4,16.8-45.2,32.6
		c-6.7,6.8-14.2,15-22.2,24.6l-47.9,2.5c-1.3,0.2-2.4,0.8-3.3,2l-28.3,48.5c-1,1.7-0.8,3.3,0.6,4.9l8.1,8.1c0.8,0.8,1.7,1.1,2.9,1.1
		c0.5,0,0.9,0,1.1-0.1l34.9-10.7l35.5,35.5L203,192.8c-0.4,1.5-0.1,2.9,1,4l8.1,8.1c0.9,0.8,1.9,1.1,2.9,1.1c0.8,0,1.4-0.2,2-0.5
		l48.5-28.3c1.2-0.8,1.9-1.9,2-3.3l2.5-47.9c9.6-8.1,17.8-15.5,24.6-22.2c15-15.1,25.7-30.3,32-45.5C333,43.1,336.2,25,336.2,4
		C336.2,2.9,335.8,2,335,1.2z M304.4,49c-2.3,2.3-5.2,3.5-8.6,3.5c-3.4,0-6.2-1.2-8.6-3.5c-2.3-2.3-3.5-5.2-3.5-8.6s1.2-6.2,3.5-8.6
		c2.3-2.3,5.2-3.5,8.6-3.5c3.4,0,6.2,1.2,8.6,3.5s3.5,5.2,3.5,8.6S306.7,46.6,304.4,49z"/>
</g>
</svg>
