<?xml version="1.0" encoding="utf-8"?>
<!-- Generator: Adobe Illustrator 21.1.0, SVG Export Plug-In . SVG Version: 6.00 Build 0)  -->
<svg version="1.1" id="Capa_1" xmlns="http://www.w3.org/2000/svg" xmlns:xlink="http://www.w3.org/1999/xlink" x="0px" y="0px"
	 viewBox="0 0 485.2 485.2" style="enable-background:new 0 0 485.2 485.2;" xml:space="preserve">
<style type="text/css">
	.st0{fill:#666666;}
</style>
<g>
	<path class="st0" d="M467.5,146.4L446,167.9L317.4,39.2l21.4-21.5c23.7-23.7,62.1-23.7,85.8,0l42.9,42.9
		C491.1,84.3,491.1,122.7,467.5,146.4z M167.2,403.7c-5.9,5.9-5.9,15.5,0,21.4c5.9,6,15.5,6,21.4,0l235.9-235.8l-21.5-21.5
		L167.2,403.7z M60,296.5c-5.9,5.9-5.9,15.5,0,21.4c5.9,5.9,15.5,5.9,21.4,0L317.4,82.1l-21.4-21.4L60,296.5z M338.8,103.5
		L102.9,339.4c-11.8,11.8-11.8,31,0,42.9c11.8,11.8,31,11.9,42.9,0l235.9-235.8L338.8,103.5z M145.7,446.6
		c-7.3-7.3-10.7-16.5-12.1-25.9c-3.1,0.5-6.2,0.9-9.4,0.9c-16.2,0-31.4-6.3-42.9-17.8c-11.5-11.5-17.8-26.7-17.8-42.9
		c0-3,0.4-5.8,0.9-8.7c-9.8-1.3-18.9-5.6-26-12.7c-0.7-0.7-0.9-1.6-1.5-2.3L0,485.2l147.7-37C147.1,447.6,146.4,447.2,145.7,446.6z"
		/>
</g>
</svg>
